<svg xmlns="http://www.w3.org/2000/svg" width="1080" height="2340" viewBox="0 0 1080 2340"><defs>
    <radialGradient id="g1" cx="28%" cy="22%" r="75%">
      <stop offset="0%" stop-color="#54f0ff" stop-opacity="0.95"/>
      <stop offset="45%" stop-color="#2d6bff" stop-opacity="0.5"/>
      <stop offset="100%" stop-color="#060814" stop-opacity="0"/></radialGradient>
    <radialGradient id="g2" cx="78%" cy="82%" r="80%">
      <stop offset="0%" stop-color="#0d1b4c" stop-opacity="0.9"/>
      <stop offset="60%" stop-color="#060814" stop-opacity="0.2"/>
      <stop offset="100%" stop-color="#060814" stop-opacity="0"/></radialGradient>
    <linearGradient id="base" x1="0" y1="0" x2="0.6" y2="1">
      <stop offset="0%" stop-color="#060814"/><stop offset="100%" stop-color="#0d1b4c"/></linearGradient>
  </defs>
  <rect width="1080" height="2340" fill="url(#base)"/>
  <rect width="1080" height="2340" fill="url(#g1)"/>
  <rect width="1080" height="2340" fill="url(#g2)"/><line x1="0" y1="0" x2="0" y2="2340" stroke="#54f0ff" stroke-opacity="0.06" stroke-width="1"/><line x1="72" y1="0" x2="72" y2="2340" stroke="#54f0ff" stroke-opacity="0.06" stroke-width="1"/><line x1="144" y1="0" x2="144" y2="2340" stroke="#54f0ff" stroke-opacity="0.06" stroke-width="1"/><line x1="216" y1="0" x2="216" y2="2340" stroke="#54f0ff" stroke-opacity="0.06" stroke-width="1"/><line x1="288" y1="0" x2="288" y2="2340" stroke="#54f0ff" stroke-opacity="0.06" stroke-width="1"/><line x1="360" y1="0" x2="360" y2="2340" stroke="#54f0ff" stroke-opacity="0.06" stroke-width="1"/><line x1="432" y1="0" x2="432" y2="2340" stroke="#54f0ff" stroke-opacity="0.06" stroke-width="1"/><line x1="504" y1="0" x2="504" y2="2340" stroke="#54f0ff" stroke-opacity="0.06" stroke-width="1"/><line x1="576" y1="0" x2="576" y2="2340" stroke="#54f0ff" stroke-opacity="0.06" stroke-width="1"/><line x1="648" y1="0" x2="648" y2="2340" stroke="#54f0ff" stroke-opacity="0.06" stroke-width="1"/><line x1="720" y1="0" x2="720" y2="2340" stroke="#54f0ff" stroke-opacity="0.06" stroke-width="1"/><line x1="792" y1="0" x2="792" y2="2340" stroke="#54f0ff" stroke-opacity="0.06" stroke-width="1"/><line x1="864" y1="0" x2="864" y2="2340" stroke="#54f0ff" stroke-opacity="0.06" stroke-width="1"/><line x1="936" y1="0" x2="936" y2="2340" stroke="#54f0ff" stroke-opacity="0.06" stroke-width="1"/><line x1="1008" y1="0" x2="1008" y2="2340" stroke="#54f0ff" stroke-opacity="0.06" stroke-width="1"/><line x1="1080" y1="0" x2="1080" y2="2340" stroke="#54f0ff" stroke-opacity="0.06" stroke-width="1"/><line x1="0" y1="0" x2="1080" y2="0" stroke="#54f0ff" stroke-opacity="0.06" stroke-width="1"/><line x1="0" y1="72" x2="1080" y2="72" stroke="#54f0ff" stroke-opacity="0.06" stroke-width="1"/><line x1="0" y1="144" x2="1080" y2="144" stroke="#54f0ff" stroke-opacity="0.06" stroke-width="1"/><line x1="0" y1="216" x2="1080" y2="216" stroke="#54f0ff" stroke-opacity="0.06" stroke-width="1"/><line x1="0" y1="288" x2="1080" y2="288" stroke="#54f0ff" stroke-opacity="0.06" stroke-width="1"/><line x1="0" y1="360" x2="1080" y2="360" stroke="#54f0ff" stroke-opacity="0.06" stroke-width="1"/><line x1="0" y1="432" x2="1080" y2="432" stroke="#54f0ff" stroke-opacity="0.06" stroke-width="1"/><line x1="0" y1="504" x2="1080" y2="504" stroke="#54f0ff" stroke-opacity="0.06" stroke-width="1"/><line x1="0" y1="576" x2="1080" y2="576" stroke="#54f0ff" stroke-opacity="0.06" stroke-width="1"/><line x1="0" y1="648" x2="1080" y2="648" stroke="#54f0ff" stroke-opacity="0.06" stroke-width="1"/><line x1="0" y1="720" x2="1080" y2="720" stroke="#54f0ff" stroke-opacity="0.06" stroke-width="1"/><line x1="0" y1="792" x2="1080" y2="792" stroke="#54f0ff" stroke-opacity="0.06" stroke-width="1"/><line x1="0" y1="864" x2="1080" y2="864" stroke="#54f0ff" stroke-opacity="0.06" stroke-width="1"/><line x1="0" y1="936" x2="1080" y2="936" stroke="#54f0ff" stroke-opacity="0.06" stroke-width="1"/><line x1="0" y1="1008" x2="1080" y2="1008" stroke="#54f0ff" stroke-opacity="0.06" stroke-width="1"/><line x1="0" y1="1080" x2="1080" y2="1080" stroke="#54f0ff" stroke-opacity="0.06" stroke-width="1"/><line x1="0" y1="1152" x2="1080" y2="1152" stroke="#54f0ff" stroke-opacity="0.06" stroke-width="1"/><line x1="0" y1="1224" x2="1080" y2="1224" stroke="#54f0ff" stroke-opacity="0.06" stroke-width="1"/><line x1="0" y1="1296" x2="1080" y2="1296" stroke="#54f0ff" stroke-opacity="0.06" stroke-width="1"/><line x1="0" y1="1368" x2="1080" y2="1368" stroke="#54f0ff" stroke-opacity="0.06" stroke-width="1"/><line x1="0" y1="1440" x2="1080" y2="1440" stroke="#54f0ff" stroke-opacity="0.06" stroke-width="1"/><line x1="0" y1="1512" x2="1080" y2="1512" stroke="#54f0ff" stroke-opacity="0.06" stroke-width="1"/><line x1="0" y1="1584" x2="1080" y2="1584" stroke="#54f0ff" stroke-opacity="0.06" stroke-width="1"/><line x1="0" y1="1656" x2="1080" y2="1656" stroke="#54f0ff" stroke-opacity="0.06" stroke-width="1"/><line x1="0" y1="1728" x2="1080" y2="1728" stroke="#54f0ff" stroke-opacity="0.06" stroke-width="1"/><line x1="0" y1="1800" x2="1080" y2="1800" stroke="#54f0ff" stroke-opacity="0.06" stroke-width="1"/><line x1="0" y1="1872" x2="1080" y2="1872" stroke="#54f0ff" stroke-opacity="0.06" stroke-width="1"/><line x1="0" y1="1944" x2="1080" y2="1944" stroke="#54f0ff" stroke-opacity="0.06" stroke-width="1"/><line x1="0" y1="2016" x2="1080" y2="2016" stroke="#54f0ff" stroke-opacity="0.06" stroke-width="1"/><line x1="0" y1="2088" x2="1080" y2="2088" stroke="#54f0ff" stroke-opacity="0.06" stroke-width="1"/><line x1="0" y1="2160" x2="1080" y2="2160" stroke="#54f0ff" stroke-opacity="0.06" stroke-width="1"/><line x1="0" y1="2232" x2="1080" y2="2232" stroke="#54f0ff" stroke-opacity="0.06" stroke-width="1"/><line x1="0" y1="2304" x2="1080" y2="2304" stroke="#54f0ff" stroke-opacity="0.06" stroke-width="1"/><circle cx="540" cy="936" r="300" fill="#2d6bff" fill-opacity="0.18"/><filter id="n"><feTurbulence type="fractalNoise" baseFrequency="0.9" numOctaves="2" stitchTiles="stitch"/><feColorMatrix type="saturate" values="0"/></filter><rect width="1080" height="2340" filter="url(#n)" opacity="0.04"/></svg>