<svg xmlns="http://www.w3.org/2000/svg" viewBox="0 0 800 400" width="100%" height="100%">
  <defs>
    <linearGradient id="bgGrad" x1="0%" y1="0%" x2="100%" y2="100%">
      <stop offset="0%" stop-color="#0f172a" />
      <stop offset="100%" stop-color="#1e293b" />
    </linearGradient>
    <linearGradient id="svgBlue" x1="0%" y1="0%" x2="100%" y2="100%">
      <stop offset="0%" stop-color="#38bdf8" />
      <stop offset="100%" stop-color="#0369a1" />
    </linearGradient>
    <linearGradient id="pngRed" x1="0%" y1="0%" x2="100%" y2="100%">
      <stop offset="0%" stop-color="#f87171" />
      <stop offset="100%" stop-color="#b91c1c" />
    </linearGradient>
  </defs>
  <rect width="800" height="400" fill="url(#bgGrad)" />
  <line x1="400" y1="40" x2="400" y2="330" stroke="rgba(255,255,255,0.08)" stroke-width="2" stroke-dasharray="8 6" />
  <g>
    <path d="M100,260 C150,100 250,100 300,260" fill="none" stroke="url(#svgBlue)" stroke-width="12" stroke-linecap="round" />
    <line x1="100" y1="260" x2="150" y2="100" stroke="#0ea5e9" stroke-width="1.5" stroke-dasharray="4 4" />
    <line x1="300" y1="260" x2="250" y2="100" stroke="#0ea5e9" stroke-width="1.5" stroke-dasharray="4 4" />
    <circle cx="150" cy="100" r="5" fill="#fff" stroke="#0ea5e9" stroke-width="2" />
    <circle cx="250" cy="100" r="5" fill="#fff" stroke="#0ea5e9" stroke-width="2" />
    <circle cx="100" cy="260" r="6" fill="#38bdf8" />
    <circle cx="300" cy="260" r="6" fill="#38bdf8" />
    <text x="200" y="320" text-anchor="middle" fill="#38bdf8" font-family="sans-serif" font-weight="bold" font-size="22" letter-spacing="2">SVG VECTOR</text>
    <text x="200" y="345" text-anchor="middle" fill="#94a3b8" font-family="sans-serif" font-size="12">INFINITE RESOLUTION</text>
  </g>
  <g>
    <g fill="url(#pngRed)" stroke="#1e293b" stroke-width="1">
      <rect x="495" y="245" width="15" height="15" />
      <rect x="510" y="220" width="15" height="15" />
      <rect x="525" y="190" width="15" height="15" />
      <rect x="540" y="160" width="15" height="15" />
      <rect x="555" y="130" width="15" height="15" />
      <rect x="570" y="115" width="15" height="15" />
      <rect x="585" y="110" width="15" height="15" />
      <rect x="600" y="110" width="15" height="15" />
      <rect x="615" y="115" width="15" height="15" />
      <rect x="630" y="130" width="15" height="15" />
      <rect x="645" y="160" width="15" height="15" />
      <rect x="660" y="190" width="15" height="15" />
      <rect x="675" y="220" width="15" height="15" />
      <rect x="690" y="245" width="15" height="15" />
    </g>
    <text x="600" y="320" text-anchor="middle" fill="#f87171" font-family="sans-serif" font-weight="bold" font-size="22" letter-spacing="2">PNG RASTER</text>
    <text x="600" y="345" text-anchor="middle" fill="#94a3b8" font-family="sans-serif" font-size="12">PIXELATED ON ZOOM</text>
  </g>
</svg>
